<svg width="17px" height="17px" viewBox="0 0 17 17" version="1.1" xmlns="http://www.w3.org/2000/svg" xmlns:xlink="http://www.w3.org/1999/xlink">
<g id="Symbols" stroke="none" stroke-width="1" fill="none" fill-rule="evenodd">
<g id="shapka" transform="translate(-1269.000000, -39.000000)">
<g id="Group-2" transform="translate(1171.000000, 39.000000)">
<g transform="translate(52.000000, 0.000000)" id="shopping-bag-(4)">
<g transform="translate(46.323529, 0.000000)">
<path d="M15.1945809,4.81857353 C15.1945809,4.61197059 15.0278162,4.44752206 14.8235294,4.44752206 L1.48188971,4.44752206 C1.27760294,4.44752206 1.11083824,4.61197059 1.11083824,4.81857353 L0,16.3049559 C0,16.5097059 0.166301471,16.6760074 0.371051471,16.6760074 L15.9343676,16.6760074 C16.1391176,16.6760074 16.3054191,16.5097059 16.3054191,16.3049559 L15.1945809,4.81857353 Z M0.742102941,15.9362206 L1.85294118,5.18730882 L14.4524779,5.18730882 L15.5656324,15.9362206 L0.742102941,15.9362206 Z" id="Fill-1" fill="#000000"></path>
<path d="M12.0441176,4.63235294 C12.0441176,2.58565063 10.1775401,0.926470588 7.875,0.926470588 C5.5724599,0.926470588 3.70588235,2.58565063 3.70588235,4.63235294" id="Oval" stroke="#000000" stroke-width="0.8"></path>
</g>
</g>
</g>
</g>
</g>
</svg>