<svg version="1.1" id="Capa_1" xmlns="http://www.w3.org/2000/svg" xmlns:xlink="http://www.w3.org/1999/xlink" x="0px" y="0px" viewBox="0 0 512 320" xml:space="preserve">
<g><g><path d="M501.3,0H10.7C4.8,0,0,4.8,0,10.7s4.8,10.7,10.7,10.7h490.7c5.9,0,10.7-4.8,10.7-10.7S507.2,0,501.3,0z"></path></g></g>
<g><g><path d="M501.3,149.3H10.7C4.8,149.3,0,154.1,0,160s4.8,10.7,10.7,10.7h490.7c5.9,0,10.7-4.8,10.7-10.7S507.2,149.3,501.3,149.3z"></path></g></g>
<g><g><path d="M501.3,298.7H10.7c-5.9,0-10.7,4.8-10.7,10.7S4.8,320,10.7,320h490.7c5.9,0,10.7-4.8,10.7-10.7C512,303.4,507.2,298.7,501.3,298.7z"></path></g></g>
</svg>
