<svg width="39" height="39" viewBox="0 0 39 39" fill="none" xmlns="http://www.w3.org/2000/svg">
<path d="M17.5655 27.6766C17.3607 27.6503 17.1583 27.6194 16.9579 27.5819C16.9007 27.5708 16.8456 27.593 16.8082 27.637C16.7355 27.7295 16.7862 27.8659 16.9028 27.8879C17.1098 27.9254 17.319 27.9584 17.5281 27.9848C17.5965 27.9935 17.6602 27.9584 17.6887 27.8966C17.7329 27.802 17.6713 27.6897 17.5656 27.6766L17.5655 27.6766Z" fill="black"/>
<path d="M17.8211 21.5969C17.6184 21.566 17.4182 21.5309 17.2178 21.4846C17.1627 21.4713 17.1055 21.4911 17.0659 21.5331C16.9888 21.6234 17.0328 21.762 17.1494 21.7884C17.3564 21.8345 17.5634 21.8719 17.7747 21.905C17.8827 21.9205 17.9706 21.8258 17.9508 21.72C17.9377 21.6563 17.8872 21.6077 17.8211 21.5969L17.8211 21.5969Z" fill="black"/>
<path d="M16.8593 18.5584C17.0663 18.5958 17.2755 18.6289 17.4846 18.6574C17.5484 18.6661 17.6078 18.6354 17.6409 18.5804C17.696 18.4835 17.6365 18.3625 17.5264 18.3471C17.3238 18.3207 17.1192 18.2876 16.9188 18.2502C16.7978 18.2282 16.7009 18.3471 16.7471 18.4615C16.7647 18.5144 16.8065 18.5497 16.8594 18.5584H16.8593Z" fill="black"/>
<path d="M18.4246 18.7524C18.6338 18.7657 18.8429 18.7766 19.0543 18.7833C19.182 18.7855 19.2591 18.6469 19.1885 18.5411C19.16 18.4993 19.1137 18.4728 19.063 18.4728C18.856 18.4662 18.6512 18.4573 18.4467 18.4443C18.3542 18.4377 18.2793 18.5102 18.2793 18.6027C18.2815 18.6797 18.3455 18.7459 18.4247 18.7524L18.4246 18.7524Z" fill="black"/>
<path d="M19.1045 27.7939C18.8976 27.7895 18.6928 27.7806 18.4882 27.7654C18.3672 27.7588 18.2834 27.8864 18.3407 27.9943C18.367 28.0429 18.4134 28.0714 18.4684 28.0757C18.6776 28.089 18.8889 28.0977 19.0981 28.1042C19.2212 28.1064 19.2983 27.9743 19.2367 27.8687C19.2082 27.8224 19.1596 27.7939 19.1046 27.7939L19.1045 27.7939Z" fill="black"/>
<path d="M16.0202 18.0414C15.8244 17.982 15.6372 17.9204 15.4457 17.8412C15.3334 17.7951 15.2146 17.8873 15.2322 18.0086C15.2409 18.0636 15.2762 18.1098 15.3269 18.1317C15.5249 18.2131 15.7254 18.2815 15.9323 18.3431C15.9852 18.3585 16.0403 18.3452 16.0799 18.3078C16.1722 18.2242 16.1391 18.0767 16.0203 18.0414L16.0202 18.0414Z" fill="black"/>
<path d="M14.3851 20.9208L13.2228 20.4409V20.7556H10.3389C10.2531 20.7556 10.1826 20.8261 10.1826 20.9119C10.1826 20.9976 10.2531 21.0681 10.3389 21.0681H13.2228V21.3874L14.3851 20.9208Z" fill="black"/>
<path d="M28.8255 20.7561H25.9395V20.4414L24.7773 20.9213L25.9397 21.3857V21.0664H28.8236C28.9093 21.0664 28.9799 20.9959 28.9799 20.9102C28.9818 20.8266 28.9115 20.7561 28.8256 20.7561H28.8255Z" fill="black"/>
<path d="M19.3529 21.7131C19.1481 21.711 18.9412 21.7044 18.7366 21.6911C18.611 21.6846 18.5297 21.8189 18.5936 21.9266C18.62 21.9706 18.6663 21.9993 18.7192 22.0037C18.9305 22.017 19.1397 22.0235 19.351 22.0257C19.4633 22.0257 19.5382 21.9155 19.4964 21.8122C19.472 21.7527 19.417 21.7153 19.353 21.7131L19.3529 21.7131Z" fill="black"/>
<path d="M16.0597 27.3756C15.8639 27.3205 15.6723 27.2567 15.483 27.1819C15.3927 27.1466 15.2936 27.1995 15.2738 27.2942C15.2584 27.369 15.298 27.4439 15.3685 27.4724C15.5665 27.5516 15.7692 27.6178 15.9739 27.6772C16.0268 27.6927 16.0819 27.6794 16.1215 27.642C16.2138 27.5582 16.1787 27.4108 16.0597 27.3756H16.0597Z" fill="black"/>
<path d="M22.1783 27.5646C21.9757 27.602 21.7733 27.6351 21.5707 27.6636C21.4541 27.6812 21.3968 27.8155 21.4673 27.9102C21.5026 27.9563 21.5577 27.9807 21.6149 27.9718C21.824 27.9433 22.031 27.9102 22.238 27.8706C22.3568 27.8486 22.4054 27.7076 22.3261 27.6153C22.2885 27.5733 22.2334 27.5535 22.1784 27.5646L22.1783 27.5646Z" fill="black"/>
<path d="M23.807 27.1724C23.7609 27.1349 23.7013 27.1238 23.6464 27.1482C23.4592 27.2274 23.2677 27.2936 23.0741 27.3508C23.0014 27.3728 22.9552 27.4433 22.9639 27.5182C22.975 27.615 23.0697 27.6766 23.1642 27.6503C23.369 27.5887 23.5714 27.5182 23.7674 27.4368C23.8732 27.388 23.893 27.2472 23.807 27.1724L23.807 27.1724Z" fill="black"/>
<path d="M22.5364 21.363C22.4946 21.3277 22.4417 21.3168 22.3888 21.3345C22.1973 21.3939 21.9947 21.4489 21.7988 21.4886C21.68 21.5149 21.6358 21.6603 21.7174 21.7484C21.7549 21.788 21.8099 21.8056 21.8628 21.7945C22.0676 21.7528 22.2811 21.6955 22.4814 21.6339C22.6002 21.5941 22.6311 21.4444 22.5364 21.363H22.5364Z" fill="black"/>
<path d="M23.1199 18.3428C23.3247 18.2834 23.5271 18.2151 23.7254 18.1337C23.8398 18.0852 23.8553 17.9311 23.7539 17.8608C23.7099 17.8323 23.6549 17.8255 23.6063 17.8453C23.4192 17.9224 23.2255 17.9861 23.0318 18.0434C22.9371 18.0719 22.891 18.1798 22.9393 18.268C22.9748 18.3317 23.0494 18.3648 23.1199 18.3428L23.1199 18.3428Z" fill="black"/>
<path d="M19.9985 18.7833C20.2076 18.7768 20.4189 18.7678 20.6281 18.7548C20.7558 18.7461 20.8174 18.5985 20.7382 18.4995C20.7051 18.4599 20.659 18.4401 20.6083 18.4444C20.4035 18.4577 20.1965 18.4686 19.992 18.4729C19.8688 18.4773 19.7983 18.6138 19.8664 18.7152C19.8951 18.7591 19.9456 18.7833 19.9985 18.7833L19.9985 18.7833Z" fill="black"/>
<path d="M24.639 23.5667C23.721 20.6983 23.7563 20.6147 24.7668 18.0434C24.8086 17.9354 24.8549 17.8231 24.8989 17.7043C25.1851 16.9735 25.1455 16.4847 25.1058 16.0048C25.0662 15.5336 25.0288 15.0713 25.3877 14.3603L25.3964 14.3427L25.4029 14.3251C25.7331 13.3235 25.2797 12.9315 24.5487 12.6896C24.3197 12.6147 24.0577 12.5575 23.7848 12.4959C23.5778 12.4497 23.3622 12.4034 23.1487 12.344C22.9154 12.278 22.6997 12.2251 22.5036 12.1788C21.5946 11.9564 21.1849 11.8552 21.207 10.8184V10.7942L21.2026 10.7744C21.1872 10.6797 21.1541 10.5961 21.1101 10.5169C21.022 10.3474 20.8481 10.2066 20.6126 10.103C20.3858 10.004 20.0931 9.93345 19.7695 9.90929L19.7738 7.97433C19.9477 7.9258 20.1018 7.83353 20.2274 7.71013C20.4145 7.52296 20.529 7.26768 20.529 6.98367C20.529 6.69966 20.4145 6.44219 20.2274 6.25721C20.0402 6.07004 19.7849 5.95557 19.5009 5.95557C19.2169 5.95557 18.9594 6.07004 18.7745 6.25721C18.5873 6.44438 18.4728 6.69966 18.4728 6.98367C18.4728 7.26768 18.5873 7.52514 18.7745 7.71013C18.9109 7.84658 19.0848 7.94343 19.2785 7.98739L19.2741 9.90909C18.9505 9.93325 18.6578 10.0016 18.431 10.1028C18.0854 10.2547 17.8719 10.488 17.8719 10.7677V10.7742L17.8654 10.7945V10.8186C17.8874 11.8554 17.478 11.9566 16.5688 12.179C16.3729 12.2276 16.157 12.2802 15.9237 12.3442C15.7102 12.4036 15.4967 12.4522 15.2876 12.4961C15.0146 12.5555 14.7526 12.615 14.5237 12.6898C13.7907 12.9299 13.3393 13.3238 13.6694 14.3253L13.676 14.3429L13.6847 14.3606C14.0457 15.0716 14.0083 15.5339 13.9687 16.005C13.9291 16.4827 13.8895 16.9713 14.1735 17.7024L14.2307 17.8478C15.327 20.6698 15.4987 21.1125 14.442 23.5429L14.4355 23.5605L14.4333 23.567C13.7134 25.8566 13.7883 27.4723 14.4862 28.5554C15.1907 29.6516 16.5093 30.1822 18.2726 30.2989C18.4311 30.31 18.6117 30.3187 18.8163 30.323C18.9462 30.3274 19.0827 30.3296 19.2302 30.3317L19.2237 33.112C19.2237 33.2484 19.336 33.3607 19.4724 33.3607C19.6089 33.3607 19.7212 33.2484 19.7212 33.112L19.7277 30.3296C19.8576 30.3274 19.9808 30.3252 20.0953 30.323C20.3001 30.3165 20.4805 30.3098 20.639 30.2989C22.4 30.1822 23.7583 29.6538 24.5024 28.5619C25.2443 27.4786 25.361 25.8607 24.6391 23.5668L24.639 23.5667ZM19.1222 7.35775C19.0253 7.26091 18.9681 7.1288 18.9681 6.98342C18.9681 6.83804 19.0275 6.70376 19.1222 6.60909C19.219 6.51224 19.3511 6.455 19.4965 6.455C19.6419 6.455 19.7762 6.51442 19.8709 6.60909C19.9677 6.70594 20.0249 6.83804 20.0249 6.98342C20.0249 7.1288 19.9655 7.26308 19.8709 7.35775C19.774 7.4546 19.6419 7.51184 19.4965 7.51184C19.3511 7.51184 19.219 7.45242 19.1222 7.35775ZM18.6445 10.5696C18.8184 10.4882 19.0362 10.4396 19.2698 10.4155V10.5541C19.2698 10.6906 19.3821 10.8029 19.5185 10.8029C19.655 10.8029 19.7673 10.6906 19.7673 10.5541V10.4111C20.0117 10.4331 20.2428 10.4838 20.4254 10.5696C20.5355 10.6203 20.6234 10.6841 20.6719 10.7546V10.7657C20.6719 10.8273 20.5729 10.9043 20.4099 10.9748C20.1853 11.0738 19.8706 11.1333 19.5183 11.1333C19.1661 11.1333 18.8512 11.0717 18.6266 10.9748C18.4923 10.9154 18.3998 10.8538 18.3735 10.7987C18.4155 10.7082 18.5124 10.6312 18.6445 10.5696L18.6445 10.5696ZM24.6237 26.2721C24.6237 26.3206 24.615 26.3602 24.6018 26.4042C24.5621 26.5208 24.4851 26.6133 24.397 26.6969C24.3066 26.7827 24.3484 26.9346 24.4697 26.9633C24.5093 26.972 24.551 26.9655 24.5841 26.9457C24.5114 27.4717 24.3419 27.9144 24.0931 28.2819C23.4437 29.233 22.2154 29.6952 20.6062 29.803C20.4367 29.8141 20.2628 29.8228 20.0824 29.8271C19.8887 29.8337 19.6817 29.8358 19.4549 29.8358C19.2303 29.8358 19.0212 29.8315 18.8275 29.8271C18.6447 29.8228 18.4729 29.8138 18.3036 29.803C16.6966 29.695 15.5122 29.235 14.9024 28.2884C14.6648 27.9187 14.5129 27.4738 14.4511 26.9434C14.4709 26.9611 14.4907 26.9787 14.5126 26.9963C14.5566 27.0338 14.616 27.0425 14.6711 27.0205C14.7812 26.9765 14.8032 26.8311 14.7129 26.7563C14.6071 26.6681 14.5103 26.5647 14.4554 26.437C14.4421 26.4061 14.4334 26.3732 14.4269 26.3401C14.4269 26.3358 14.4247 26.3314 14.4247 26.3269C14.4358 25.5961 14.5899 24.7332 14.9068 23.7205C15.3932 22.5977 15.6354 21.8737 15.6618 21.1714C15.8269 21.31 16.0361 21.4201 16.2341 21.5037C16.3464 21.5498 16.4652 21.4597 16.4498 21.3385C16.4411 21.2834 16.408 21.2373 16.3551 21.2153C16.1834 21.1426 16.0006 21.048 15.8576 20.9269C15.7982 20.8784 15.719 20.8808 15.6617 20.9226C15.6308 20.0795 15.2942 19.21 14.6954 17.6668L14.6822 17.6337C14.7592 17.5764 14.7703 17.462 14.6976 17.3936C14.6338 17.3342 14.5788 17.2705 14.5346 17.1934C14.5324 17.1912 14.5324 17.1869 14.5302 17.1847C14.4114 16.7333 14.4399 16.3855 14.4687 16.0421C14.5126 15.505 14.5544 14.9787 14.1407 14.1533C13.9492 13.55 14.2288 13.3102 14.68 13.1626C14.8957 13.0921 15.1422 13.0371 15.3975 12.9822C15.6154 12.9337 15.84 12.8854 16.058 12.8238C16.2891 12.76 16.4983 12.7071 16.6876 12.6608C17.6826 12.4164 18.2154 12.2864 18.3386 11.3861C18.3671 11.4015 18.398 11.417 18.4311 11.43C18.7151 11.5556 19.1004 11.6327 19.523 11.6327C19.9457 11.6327 20.3309 11.5556 20.6149 11.43C20.6567 11.4102 20.6985 11.3904 20.7359 11.3706C20.8547 12.2842 21.3875 12.4164 22.3891 12.6605C22.5784 12.7067 22.7875 12.7574 23.0187 12.8235C23.2365 12.8851 23.4611 12.9337 23.6792 12.982C23.9345 13.0392 24.181 13.0921 24.3967 13.1624C24.8481 13.3099 25.1297 13.5498 24.936 14.153C24.5221 14.9785 24.5663 15.5024 24.6102 16.0419C24.6387 16.3764 24.6653 16.7198 24.5552 17.1557C24.5112 17.2504 24.4407 17.3296 24.3658 17.4001C24.324 17.4375 24.3086 17.4948 24.3197 17.5498C24.3308 17.5916 24.3549 17.6269 24.388 17.6467C24.3595 17.7194 24.3308 17.7897 24.3045 17.8602C23.7982 19.1501 23.5229 19.8481 23.4768 20.5504C23.4725 20.5658 23.4703 20.5813 23.4703 20.5989C23.4703 20.6363 23.4616 20.6648 23.4483 20.7001C23.3998 20.8102 23.2942 20.9027 23.1996 20.9686C23.1534 21.0017 23.129 21.0568 23.1358 21.114C23.1491 21.2329 23.2833 21.2923 23.3802 21.2242C23.4176 21.1978 23.4551 21.1691 23.4903 21.1384C23.5563 21.7659 23.783 22.5077 24.1682 23.7163C24.4742 24.6937 24.6218 25.5325 24.6305 26.2456C24.6238 26.2543 24.6238 26.2632 24.6238 26.272L24.6237 26.2721Z" fill="black"/>
<path d="M20.6499 27.758C20.4451 27.7734 20.2381 27.7822 20.0336 27.7889C19.9126 27.7933 19.8421 27.9254 19.9058 28.0266C19.9367 28.0727 19.9872 28.1014 20.0423 28.0993C20.2514 28.0927 20.4627 28.0816 20.6719 28.0683C20.7996 28.0596 20.8634 27.9077 20.7798 27.8109C20.7446 27.7734 20.6984 27.7558 20.6499 27.758L20.6499 27.758Z" fill="black"/>
<path d="M20.8901 21.6363C20.6853 21.6604 20.4829 21.678 20.276 21.6913C20.1528 21.7 20.0866 21.8411 20.1615 21.9401C20.1946 21.9819 20.2429 22.006 20.2958 22.0017C20.5049 21.9884 20.7184 21.9708 20.9254 21.9466C20.9805 21.9401 21.0266 21.9048 21.051 21.8541C21.1015 21.7442 21.0111 21.623 20.8901 21.6363L20.8901 21.6363Z" fill="black"/>
<path d="M21.5699 18.6598C21.779 18.6313 21.9881 18.6004 22.1951 18.5608C22.2744 18.5454 22.3294 18.4727 22.3207 18.3913C22.3096 18.301 22.226 18.2394 22.1379 18.2548C21.9353 18.2923 21.7329 18.3232 21.5303 18.3517C21.4489 18.3628 21.3895 18.4352 21.396 18.519C21.4004 18.6072 21.482 18.6709 21.5699 18.6598H21.5699Z" fill="black"/>
</svg>
